<?xml version="1.0" standalone="no"?><!-- Generator: Gravit.io --><svg xmlns="http://www.w3.org/2000/svg" xmlns:xlink="http://www.w3.org/1999/xlink" style="isolation:isolate" viewBox="0 0 500 500" width="500" height="500"><defs><clipPath id="_clipPath_xV4xuYPMS3GWRtBkNRSweatehk85iQZr"><rect width="500" height="500"/></clipPath></defs><g clip-path="url(#_clipPath_xV4xuYPMS3GWRtBkNRSweatehk85iQZr)"><g style="isolation:isolate"/><rect x="0" y="0" width="500" height="500" transform="matrix(1,0,0,1,0,0)" fill="rgb(255,58,70)"/><g style="isolation:isolate"/><rect x="-4" y="0" width="510" height="509" transform="matrix(1,0,0,1,0,0)" fill="rgb(0,131,94)"/><g transform="matrix(1,0,0,1,90,185)"><text transform="matrix(1,0,0,1,0,98.016)" style="font-family:'Assistant';font-weight:700;font-size:96px;font-style:normal;fill:#FFFFFF;stroke:none;">DESIGN</text></g><g transform="matrix(1,0,0,1,91,329)"><text transform="matrix(1,0,0,1,0,72.491)" style="font-family:'Assistant';font-weight:400;font-size:71px;font-style:normal;fill:#FFFFFF;stroke:none;">INSTITUTE</text></g><g transform="matrix(1,0,0,1,90,70)"><text transform="matrix(1,0,0,1,0,76.575)" style="font-family:'Assistant';font-weight:400;font-size:75px;font-style:normal;fill:#FFFFFF;stroke:none;">BUSINESS</text></g></g></svg>